#define envelope_width 16
#define envelope_height 16
static unsigned char envelope_bits[] = {
   0x00, 0x00, 0x00, 0x00, 0x00, 0x00, 0xfc, 0x3f, 0x0c, 0x30, 0x1c, 0x38,
   0x34, 0x2c, 0xc4, 0x23, 0x84, 0x21, 0x04, 0x20, 0x04, 0x20, 0xfc, 0x3f,
   0x00, 0x00, 0x00, 0x00, 0x00, 0x00, 0x00, 0x00};
